<?xml version="1.0" encoding="utf-8"?>
<!-- Generator: Adobe Illustrator 19.0.0, SVG Export Plug-In . SVG Version: 6.00 Build 0)  -->
<svg xmlns="http://www.w3.org/2000/svg" xmlns:xlink="http://www.w3.org/1999/xlink" version="1.1" x="0px" y="0px" viewBox="0 0 1400 980" style="enable-background:new 0 0 1400 980;" xml:space="preserve">
<style type="text/css">
	.st0{fill:#F9E4D7;}
	.st1{fill:#E0C5B6;}
	.st2{fill:#D65D5B;}
	.st3{fill:#D81212;}
	.st4{fill:#1E1E1E;}
	.st5{fill:#E21313;}
	.st6{fill:#2B2A2A;}
	.st7{fill:#D67F7F;}
	.st8{fill:#F41919;}
	.st9{fill:#FFFFFF;}
	.st10{fill:#E89797;}
	.st11{fill:#FF5050;}
</style>
<g id="Layer_1">
	
</g>
<g id="Layer_2">
	<path class="st1" d="M1294.3,585.5c0,4.4-3.6,8-8,8H113.8c-4.4,0-8-3.6-8-8l0,0c0-4.4,3.6-8,8-8h1172.5   C1290.7,577.4,1294.3,581,1294.3,585.5L1294.3,585.5z"/>
	<g>
		<g>
			<g>
				<g>
					<g>
						<g>
							<path class="st2" d="M298.3,513.8l-30.1-18.7c-4-2.5-5.2-7.7-2.7-11.6c2.5-4,7.7-5.2,11.6-2.7l30.1,18.7L298.3,513.8z"/>
							<path class="st2" d="M250.2,432.2c-4.3,1.8-6.4,6.7-4.7,11l19.2,47.7c1.7,4.3,6.7,6.4,11,4.7c4.3-1.7,6.4-6.7,4.7-11         l-19.2-47.7C259.4,432.5,254.5,430.4,250.2,432.2z"/>
							<path class="st3" d="M250,431.4c-5.2,2.1-7.8,8-5.7,13.3l14,35.1c6.2-2.8,12.6-5.1,18.8-7.8l-14-34.9         C261.2,431.8,255.2,429.3,250,431.4z"/>
							<g>
								<g>
									<g>
										<path class="st2" d="M318.1,526c3.8-5.4,7-11.1,10.5-16.7l-11.9-7.4c-5.5-3.4-12.7-1.7-16.1,3.8c-0.7,1.2-1.2,2.4-1.5,3.6            c-1,4.7,0.9,9.8,5.2,12.5L316,529C316.7,528,317.4,527,318.1,526z"/>
									</g>
									<g>
										<path class="st2" d="M319.1,504.2c-0.7,1-1.4,2.2-2,3.3l15.4,9.7c1.1,0.7,2.5,0.3,3.1-0.7c0.1-0.2,0.2-0.5,0.3-0.7            c0.2-0.9-0.2-1.9-1-2.4l-15.4-9.6C319.4,503.8,319.2,504,319.1,504.2z"/>
									</g>
									<g>
										<path class="st2" d="M318.5,511.4c-0.7,1-1.4,2.2-2,3.3l15.4,9.7c1.1,0.7,2.5,0.3,3.1-0.7c0.1-0.2,0.2-0.5,0.3-0.7            c0.2-0.9-0.2-1.9-1-2.4l-15.4-9.7C318.8,511,318.7,511.2,318.5,511.4z"/>
									</g>
									<g>
										<path class="st2" d="M314.3,516.1c-0.7,1-1.4,2.2-2.1,3.2l15.4,9.8c1.1,0.7,2.5,0.4,3.1-0.7c0.1-0.2,0.2-0.5,0.3-0.7            c0.2-0.9-0.2-1.9-1-2.4l-15.4-9.7C314.6,515.7,314.4,515.9,314.3,516.1z"/>
									</g>
									<g>
										<path class="st2" d="M307.5,519.1c-0.7,1-1.4,2.2-2,3.3l15.4,9.7c1.1,0.7,2.5,0.3,3.1-0.7c0.1-0.2,0.2-0.5,0.3-0.7            c0.2-0.9-0.2-1.9-1-2.4l-15.4-9.7C307.7,518.8,307.6,518.9,307.5,519.1z"/>
									</g>
									<g>
										<path class="st2" d="M313.7,501.4c0.3,1.7,0.7,3.3,1.1,4.9l8.9-2c1.6-0.4,2.6-2,2.3-3.6c-0.1-0.3-0.2-0.7-0.4-0.9            c-0.7-1.1-1.9-1.6-3.2-1.3l-9.7,2.1C312.8,500.9,313.6,501.1,313.7,501.4z"/>
									</g>
								</g>
							</g>
							
								<rect x="294.5" y="503.2" transform="matrix(0.5281 -0.8492 0.8492 0.5281 -287.3724 496.3325)" class="st2" width="16.9" height="7.2"/>
						</g>
					</g>
					<g>
						<path class="st4" d="M229.8,574.4l16.4-52.1c1.6-5.1-1.3-10.5-6.4-12.1c-5.1-1.6-10.5,1.3-12.1,6.4l-16.4,52.1L229.8,574.4z"/>
						<path class="st4" d="M239.9,510.2c-5.1-1.6-10.5,1.3-12.1,6.4L227,519l0,0l-14.6,46.3c-1.6,5.1,1.3,10.5,6.4,12.1        c5.1,1.6,10.5-1.3,12.1-6.4l0.8-2.4l0,0l14.6-46.3C247.8,517.2,245,511.8,239.9,510.2z"/>
						<path class="st4" d="M206.2,624.5l23.3-49.4c2.3-4.8,0.2-10.6-4.7-12.9c-4.8-2.3-10.6-0.2-12.9,4.7l-23.3,49.4L206.2,624.5z"/>
					</g>
					<path class="st5" d="M188.9,615.9l-4.4,9.2c0,0,23.4,11.2,30.1,14.4c1.7-3.6-8.3-15.3-8.3-15.3L188.9,615.9z"/>
					<path class="st2" d="M279.9,384.7c2.2,0,4,1.8,4,4l0,0c0,2.2-1.8,4-4,4h-2.1c-2.2,0-4-1.8-4-4l0,0c0-2.2,1.8-4,4-4H279.9z"/>
					<g>
						<g>
							<g>
								<path class="st6" d="M247.6,529.6c17,0,31.2,2.4,31.2-20.1h-62.3C216.4,532.5,230.6,529.6,247.6,529.6z"/>
								<rect x="239.4" y="411.7" class="st7" width="16.3" height="23.1"/>
								<path class="st8" d="M251.9,425.9c-19.3,0-35.5-1.6-35.5,45.1v38.5h62.3V471C278.8,437.6,271.2,425.9,251.9,425.9z"/>
								<g>
									<path class="st4" d="M227.6,350.4c5.6-8.5,8.2-14.1,19.1-14.1c22.9,0,38.2,14,38.2,31.2v1.1c-6,3.5-13,5.5-20.4,5.5           C248.1,374.1,234,364.4,227.6,350.4z"/>
									<path class="st9" d="M263.1,396.2c0,1.2,1,2.2,2.2,2.2h9.9c1.2,0,2.2-1,2.2-2.2l0,0c0-1.2,0.2-2.2-1-2.2h-11.2           C264.1,394,263.1,395,263.1,396.2L263.1,396.2z"/>
									<path class="st10" d="M275.4,405.1c-5.5-0.2-10-4.5-10.6-9.9h13.7c0.2-1.4,0.3-2.8,0.3-4.3v-23.4c0-17.2-14-31.2-31.2-31.2           c-17.2,0-31.2,14-31.2,31.2v23.4c0,17.2,14,31.2,31.2,31.2C259.7,422.1,270.2,415.2,275.4,405.1L275.4,405.1z"/>
									<path class="st6" d="M225.2,345.8c-5.4,5.6-8.8,13.2-8.8,21.7v23.4c0,9.1,3.9,17.2,10,22.9c5.4-5.6,8.8-13.2,8.8-21.7           v-23.4C235.2,359.7,231.4,351.5,225.2,345.8z"/>
									<path class="st4" d="M273.7,350.4c-5.6-8.5-15.2-14.1-26.1-14.1c-17.2,0-31.2,14-31.2,31.2v9.9c9.4,0,13,0,20.4,0           C253.2,377.3,267.3,364.4,273.7,350.4z"/>
									<path class="st7" d="M235.2,392.6L235.2,392.6c-4.2,0-7.6-3.4-7.6-7.6l0,0c0-4.2,3.4-7.6,7.6-7.6l0,0           C235.2,384.1,235.2,384.1,235.2,392.6z"/>
								</g>
							</g>
						</g>
						<g>
							<g>
								<path class="st10" d="M187.5,507l7.7-34.6c1-4.6,5.5-7.4,10.1-6.4c4.6,1,7.4,5.5,6.4,10.1l-7.7,34.6L187.5,507z"/>
								<path class="st10" d="M248.6,434.5c-3.1-3.5-8.4-3.8-11.9-0.8l-38.6,33.9c-3.5,3.1-3.9,8.4-0.8,11.9          c3.1,3.5,8.4,3.9,11.9,0.8l38.7-33.9C251.4,443.4,251.7,438,248.6,434.5z"/>
								<path class="st11" d="M249.3,434.1c-3.7-4.2-10.2-4.7-14.4-0.9L206.5,458c4.7,4.9,9,10.2,13.6,15.2l28.3-24.7          C252.6,444.8,253.1,438.3,249.3,434.1z"/>
								<g>
									<g>
										<g>
											<path class="st10" d="M182.6,529.7c6.3,1.8,12.8,3,19.3,4.3l3-13.7c1.4-6.3-2.6-12.6-8.9-14c-1.3-0.3-2.7-0.4-3.9-0.2             c-4.8,0.6-8.9,4.1-10,9.1l-3,13.5C180.2,529,181.4,529.3,182.6,529.7z"/>
										</g>
										<g>
											<path class="st10" d="M203.5,523.4c-1.2-0.3-2.5-0.6-3.8-0.8l-4,17.8c-0.3,1.2,0.5,2.4,1.7,2.7c0.3,0.1,0.5,0.1,0.8,0             c0.9-0.1,1.7-0.8,2-1.8l4-17.7C204,523.5,203.7,523.4,203.5,523.4z"/>
										</g>
										<g>
											<path class="st10" d="M196.6,525.3c-1.2-0.4-2.5-0.6-3.7-0.9l-4,17.8c-0.3,1.2,0.5,2.5,1.7,2.7c0.3,0.1,0.5,0.1,0.8,0             c0.9-0.1,1.7-0.8,2-1.8l4-17.7C197,525.4,196.8,525.3,196.6,525.3z"/>
										</g>
										<g>
											<path class="st10" d="M190.7,522.8c-1.2-0.4-2.5-0.6-3.7-0.9l-4.1,17.8c-0.3,1.2,0.5,2.4,1.7,2.7c0.3,0.1,0.5,0.1,0.8,0             c0.9-0.1,1.7-0.8,2-1.8l4.1-17.7C191.2,522.9,191,522.9,190.7,522.8z"/>
										</g>
										<g>
											<path class="st10" d="M185.5,517.4c-1.2-0.3-2.5-0.6-3.7-0.8l-4,17.8c-0.3,1.2,0.5,2.4,1.7,2.7c0.3,0.1,0.5,0.1,0.8,0             c0.9-0.1,1.7-0.8,2-1.8l4-17.7C186,517.5,185.8,517.4,185.5,517.4z"/>
										</g>
										<g>
											<path class="st10" d="M204.4,517.4c-1.5,0.8-2.9,1.8-4.3,2.7l4.9,7.8c0.9,1.4,2.7,1.8,4.1,1c0.3-0.2,0.6-0.4,0.8-0.7             c0.8-1,0.9-2.3,0.2-3.5l-5.2-8.4C204.5,516.4,204.6,517.2,204.4,517.4z"/>
										</g>
									</g>
								</g>
								
									<rect x="187.3" y="505.4" transform="matrix(0.9761 0.2172 -0.2172 0.9761 115.2121 -30.3631)" class="st10" width="16.9" height="7.2"/>
							</g>
						</g>
					</g>
					<path class="st4" d="M271.3,380c0,1.8-1.5,3.3-3.3,3.3l0,0c-1.8,0-3.3-1.5-3.3-3.3v-5.4c0-1.8,1.5-3.3,3.3-3.3l0,0       c1.8,0,3.3,1.5,3.3,3.3V380z"/>
					<g>
						<path class="st6" d="M290,566.6L269.4,516c-2-4.9-7.7-7.3-12.6-5.3c-4.9,2-7.3,7.7-5.3,12.6l20.6,50.6L290,566.6z"/>
						<path class="st6" d="M303.7,620.2l-13.5-52.9c-1.3-5.2-6.6-8.3-11.8-6.9c-5.2,1.3-8.3,6.6-6.9,11.8L285,625L303.7,620.2z"/>
					</g>
					<path class="st8" d="M284.9,624.6l2.5,9.9c0,0,25.1-6.3,32.4-8.1c-1-3.9-16.1-6.5-16.1-6.5L284.9,624.6z"/>
				</g>
				<g>
					<g>
						<g>
							<path class="st2" d="M469.4,521.5l-25.3-24.7c-3.3-3.3-3.4-8.6-0.1-11.9c3.3-3.3,8.6-3.4,11.9-0.1l25.3,24.7L469.4,521.5z"/>
							<path class="st2" d="M440,431.4c-4.6,0.8-7.7,5.1-6.9,9.7l8.5,50.7c0.8,4.6,5.1,7.7,9.7,7c4.6-0.8,7.7-5.1,7-9.7l-8.5-50.8         C448.9,433.7,444.6,430.6,440,431.4z"/>
							<path class="st3" d="M440,430.6c-5.6,0.9-9.3,6.2-8.4,11.7l6.1,37.3c6.7-1.4,13.4-2.2,20.1-3.6l-6.1-37.1         C450.8,433.4,445.6,429.7,440,430.6z"/>
							<g>
								<g>
									<g>
										<path class="st2" d="M486.1,537.7c4.8-4.5,9.3-9.3,13.8-14.1l-10-9.8c-4.6-4.5-12-4.4-16.6,0.2c-1,1-1.7,2.1-2.2,3.2            c-2,4.4-1.2,9.7,2.4,13.3l9.9,9.6C484.3,539.3,485.2,538.5,486.1,537.7z"/>
									</g>
									<g>
										<path class="st2" d="M491.7,516.6c-0.9,0.9-1.8,1.8-2.7,2.7l13,12.8c0.9,0.9,2.3,0.9,3.2,0c0.2-0.2,0.3-0.4,0.4-0.6            c0.4-0.9,0.2-1.9-0.5-2.6l-13-12.7C492.1,516.3,491.9,516.4,491.7,516.6z"/>
									</g>
									<g>
										<path class="st2" d="M489.7,523.5c-0.9,0.9-1.8,1.8-2.7,2.7l13,12.8c0.9,0.9,2.3,0.9,3.2,0c0.2-0.2,0.3-0.4,0.4-0.6            c0.4-0.9,0.2-1.9-0.5-2.6l-13-12.8C490,523.2,489.9,523.3,489.7,523.5z"/>
									</g>
									<g>
										<path class="st2" d="M484.5,527.1c-0.9,0.9-1.8,1.8-2.7,2.7l12.9,12.8c0.9,0.9,2.3,0.9,3.2,0c0.2-0.2,0.3-0.4,0.4-0.6            c0.4-0.8,0.2-1.9-0.5-2.6l-12.9-12.8C484.9,526.8,484.7,527,484.5,527.1z"/>
									</g>
									<g>
										<path class="st2" d="M477.2,528.7c-0.9,0.9-1.8,1.8-2.7,2.7l13,12.8c0.9,0.9,2.3,0.9,3.2,0c0.2-0.2,0.3-0.4,0.4-0.6            c0.4-0.9,0.2-1.9-0.5-2.6l-13-12.8C477.5,528.4,477.4,528.5,477.2,528.7z"/>
									</g>
									<g>
										<path class="st2" d="M487.1,512.7c-0.1,1.7,0,3.4,0,5.1l9.2,0c1.7,0,3-1.3,3-3c0-0.3-0.1-0.7-0.2-1c-0.4-1.2-1.5-2-2.8-2            l-9.9,0C486.3,512,487.1,512.4,487.1,512.7z"/>
									</g>
								</g>
							</g>
							
								<rect x="467" y="512" transform="matrix(0.6987 -0.7154 0.7154 0.6987 -225.6247 495.4328)" class="st2" width="16.9" height="7.2"/>
						</g>
					</g>
					<g>
						<path class="st4" d="M437.4,565.9l-2.2-46.9c-0.2-5.3-4.7-9.5-10.1-9.3c-5.3,0.2-9.5,4.7-9.3,10.1l2.2,46.9L437.4,565.9z"/>
						<path class="st4" d="M413.1,619.2l23.3-49.4c2.3-4.8,0.2-10.6-4.7-12.9c-4.8-2.3-10.6-0.2-12.9,4.7L395.6,611L413.1,619.2z"/>
					</g>
					<path class="st5" d="M395.8,610.6l-4.4,9.2c0,0,23.4,11.2,30.1,14.4c1.7-3.6-8.3-15.3-8.3-15.3L395.8,610.6z"/>
					<g>
						<g>
							<g>
								<path class="st6" d="M436,529.6c17,0,31.2,2.4,31.2-20.1h-62.3C404.8,532.5,419,529.6,436,529.6z"/>
								<rect x="427.8" y="411.7" class="st7" width="16.3" height="23.1"/>
								<path class="st2" d="M468.2,384.7c2.2,0,4,1.8,4,4l0,0c0,2.2-1.8,4-4,4h-2.1c-2.2,0-4-1.8-4-4l0,0c0-2.2,1.8-4,4-4H468.2z"/>
								<g>
									<path class="st4" d="M416,350.4c5.6-8.5,8.2-14.1,19.1-14.1c22.9,0,38.2,14,38.2,31.2v1.1c-6,3.5-13,5.5-20.4,5.5           C436.5,374.1,422.4,364.4,416,350.4z"/>
									<path class="st9" d="M451.5,396.2c0,1.2,1,2.2,2.2,2.2h9.9c1.2,0,2.2-1,2.2-2.2l0,0c0-1.2,0.2-2.2-1-2.2h-11.2           C452.5,394,451.5,395,451.5,396.2L451.5,396.2z"/>
									<path class="st10" d="M463.8,405.1c-5.5-0.2-10-4.5-10.6-9.9h13.7c0.2-1.4,0.3-2.8,0.3-4.3v-23.4c0-17.2-14-31.2-31.2-31.2           c-17.2,0-31.2,14-31.2,31.2v23.4c0,17.2,14,31.2,31.2,31.2C448.1,422.1,458.6,415.2,463.8,405.1L463.8,405.1z"/>
									<path class="st6" d="M413.5,345.8c-5.4,5.6-8.8,13.2-8.8,21.7v23.4c0,9.1,3.9,17.2,10,22.9c5.4-5.6,8.8-13.2,8.8-21.7           v-23.4C423.6,359.7,419.7,351.5,413.5,345.8z"/>
									<path class="st4" d="M462.1,350.4c-5.6-8.5-15.2-14.1-26.1-14.1c-17.2,0-31.2,14-31.2,31.2v9.9c9.4,0,13,0,20.4,0           C441.6,377.3,455.7,364.4,462.1,350.4z"/>
									<path class="st7" d="M423.6,392.6L423.6,392.6c-4.2,0-7.6-3.4-7.6-7.6l0,0c0-4.2,3.4-7.6,7.6-7.6l0,0           C423.6,384.1,423.6,384.1,423.6,392.6z"/>
								</g>
								<path class="st4" d="M459.7,380c0,1.8-1.5,3.3-3.3,3.3l0,0c-1.8,0-3.3-1.5-3.3-3.3v-5.4c0-1.8,1.5-3.3,3.3-3.3l0,0          c1.8,0,3.3,1.5,3.3,3.3V380z"/>
								<path class="st8" d="M440.3,425.9c-19.3,0-35.5-1.6-35.5,45.1v38.5h62.3V471C467.1,437.6,459.6,425.9,440.3,425.9z"/>
							</g>
						</g>
						<g>
							<g>
								<path class="st10" d="M391.5,516.6l0-35.4c0-4.7,3.8-8.4,8.4-8.4c4.7,0,8.4,3.8,8.4,8.4l0,35.4L391.5,516.6z"/>
								<path class="st10" d="M435.4,432.6c-3.8-2.7-9.1-1.9-11.8,1.9L393.3,476c-2.8,3.8-1.9,9.1,1.8,11.8c3.8,2.8,9,1.9,11.8-1.8          l30.4-41.5C440,440.7,439.2,435.4,435.4,432.6z"/>
								<path class="st11" d="M436,432.1c-4.5-3.3-10.9-2.3-14.3,2.2l-22.4,30.4c5.6,3.8,11,8,16.6,11.9l22.3-30.3          C441.6,441.8,440.6,435.4,436,432.1z"/>
								<g>
									<g>
										<g>
											<path class="st10" d="M391.6,539.9c6.6,0.3,13.2,0.1,19.7,0l0-14c0-6.5-5.2-11.7-11.7-11.7c-1.4,0-2.7,0.2-3.9,0.7             c-4.6,1.6-7.8,5.9-7.8,11l0,13.8C389.2,539.7,390.4,539.8,391.6,539.9z"/>
										</g>
										<g>
											<path class="st10" d="M410.7,529.2c-1.3-0.1-2.6,0-3.8,0l-0.1,18.2c0,1.3,1,2.3,2.3,2.3c0.3,0,0.5,0,0.8-0.1             c0.9-0.3,1.5-1.2,1.5-2.1l0.1-18.2C411.2,529.2,410.9,529.2,410.7,529.2z"/>
										</g>
										<g>
											<path class="st10" d="M404.3,532.5c-1.3-0.1-2.6,0-3.8,0l-0.1,18.2c0,1.3,1,2.3,2.3,2.3c0.3,0,0.5,0,0.8-0.1             c0.9-0.3,1.5-1.2,1.5-2.1l0.1-18.2C404.8,532.6,404.6,532.5,404.3,532.5z"/>
										</g>
										<g>
											<path class="st10" d="M398.1,531.4c-1.3-0.1-2.6,0-3.8,0l-0.1,18.2c0,1.3,1,2.3,2.3,2.3c0.3,0,0.5,0,0.8-0.1             c0.9-0.3,1.5-1.1,1.5-2.1l0.1-18.2C398.6,531.4,398.3,531.4,398.1,531.4z"/>
										</g>
										<g>
											<path class="st10" d="M391.8,527.2c-1.3-0.1-2.6,0-3.8,0l-0.1,18.2c0,1.3,1,2.3,2.3,2.3c0.3,0,0.5,0,0.8-0.1             c0.9-0.3,1.5-1.2,1.5-2.1l0.1-18.2C392.3,527.3,392.1,527.2,391.8,527.2z"/>
										</g>
										<g>
											<path class="st10" d="M410.2,523.2c-1.3,1.1-2.4,2.3-3.6,3.5l6.4,6.5c1.2,1.2,3.1,1.2,4.2,0c0.3-0.2,0.4-0.5,0.6-0.8             c0.5-1.1,0.4-2.5-0.5-3.4l-6.9-7.1C410.2,522.1,410.4,522.9,410.2,523.2z"/>
										</g>
									</g>
								</g>
								<rect x="391.5" y="513.2" class="st10" width="16.9" height="7.2"/>
							</g>
						</g>
					</g>
					<g>
						<path class="st6" d="M477.9,566.8L457.8,516c-2-5-7.6-7.4-12.6-5.4c-5,2-7.4,7.6-5.4,12.6l20.1,50.8L477.9,566.8z"/>
						<path class="st6" d="M478.5,624.2l-0.1-54.6c0-5.3-4.4-9.6-9.7-9.6c-5.3,0-9.6,4.4-9.6,9.7l0.1,54.6L478.5,624.2z"/>
					</g>
					<path class="st8" d="M459.1,623.9l0,10.2c0,0,25.9,0.1,33.4,0.1c0-4-14-10.2-14-10.2L459.1,623.9z"/>
				</g>
				<g>
					<rect x="614.8" y="411.7" class="st7" width="16.3" height="23.1"/>
					<path class="st2" d="M655.3,384.7c2.2,0,4,1.8,4,4l0,0c0,2.2-1.8,4-4,4h-2.1c-2.2,0-4-1.8-4-4l0,0c0-2.2,1.8-4,4-4H655.3z"/>
					<g>
						<path class="st4" d="M603,350.4c5.6-8.5,8.2-14.1,19.1-14.1c22.9,0,38.2,14,38.2,31.2v1.1c-6,3.5-13,5.5-20.4,5.5        C623.5,374.1,609.4,364.4,603,350.4z"/>
						<path class="st9" d="M638.5,396.2c0,1.2,1,2.2,2.2,2.2h9.9c1.2,0,2.2-1,2.2-2.2l0,0c0-1.2,0.2-2.2-1-2.2h-11.2        C639.5,394,638.5,395,638.5,396.2L638.5,396.2z"/>
						<path class="st10" d="M650.8,405.1c-5.5-0.2-10-4.5-10.6-9.9h13.7c0.2-1.4,0.3-2.8,0.3-4.3v-23.4c0-17.2-14-31.2-31.2-31.2        c-17.2,0-31.2,14-31.2,31.2v23.4c0,17.2,14,31.2,31.2,31.2C635.1,422.1,645.6,415.2,650.8,405.1L650.8,405.1z"/>
						<path class="st6" d="M600.6,345.8c-5.4,5.6-8.8,13.2-8.8,21.7v23.4c0,9.1,3.9,17.2,10,22.9c5.4-5.6,8.8-13.2,8.8-21.7v-23.4        C610.6,359.7,606.8,351.5,600.6,345.8z"/>
						<path class="st4" d="M649.1,350.4c-5.6-8.5-15.2-14.1-26.1-14.1c-17.2,0-31.2,14-31.2,31.2v9.9c9.4,0,13,0,20.4,0        C628.6,377.3,642.7,364.4,649.1,350.4z"/>
						<path class="st7" d="M610.6,392.6L610.6,392.6c-4.2,0-7.6-3.4-7.6-7.6l0,0c0-4.2,3.4-7.6,7.6-7.6l0,0        C610.6,384.1,610.6,384.1,610.6,392.6z"/>
					</g>
					<path class="st4" d="M647.2,380c0,1.8-1.5,3.3-3.3,3.3l0,0c-1.8,0-3.3-1.5-3.3-3.3v-5.4c0-1.8,1.5-3.3,3.3-3.3l0,0       c1.8,0,3.3,1.5,3.3,3.3V380z"/>
				</g>
				<g>
					<g>
						<g>
							<path class="st2" d="M592.7,516.4l0-35.4c0-4.7,3.8-8.5,8.4-8.5c4.7,0,8.5,3.8,8.5,8.4l0,35.4L592.7,516.4z"/>
							<path class="st2" d="M636.4,432.3c-3.8-2.7-9.1-1.9-11.8,1.9l-30.3,41.5c-2.8,3.8-1.9,9.1,1.8,11.8c3.8,2.8,9.1,1.9,11.8-1.8         l30.3-41.6C641,440.3,640.2,435,636.4,432.3z"/>
							<path class="st3" d="M637,431.7c-4.6-3.3-10.9-2.3-14.3,2.2l-22.3,30.5c5.6,3.8,11,8,16.6,11.8l22.2-30.3         C642.6,441.4,641.6,435.1,637,431.7z"/>
							<g>
								<g>
									<g>
										<path class="st2" d="M592.8,539.6c6.6,0.3,13.2,0.1,19.7,0l0-14c0-6.5-5.3-11.7-11.7-11.7c-1.4,0-2.7,0.2-3.9,0.7            c-4.6,1.6-7.8,6-7.8,11.1l0,13.8C590.3,539.5,591.6,539.5,592.8,539.6z"/>
									</g>
									<g>
										<path class="st2" d="M611.8,528.9c-1.3-0.1-2.6,0-3.8,0l0,18.2c0,1.3,1,2.3,2.3,2.3c0.3,0,0.5,0,0.8-0.1            c0.9-0.3,1.5-1.2,1.5-2.2l0-18.2C612.3,528.9,612.1,528.9,611.8,528.9z"/>
									</g>
									<g>
										<path class="st2" d="M605.5,532.2c-1.3-0.1-2.6,0-3.8,0l0,18.2c0,1.3,1,2.3,2.3,2.3c0.3,0,0.5,0,0.8-0.1            c0.9-0.3,1.5-1.2,1.5-2.2l0-18.2C605.9,532.2,605.7,532.2,605.5,532.2z"/>
									</g>
									<g>
										<path class="st2" d="M599.2,531.1c-1.3-0.1-2.6,0-3.8,0l-0.1,18.2c0,1.3,1,2.3,2.3,2.3c0.3,0,0.5,0,0.8-0.1            c0.9-0.3,1.5-1.2,1.5-2.1l0.1-18.2C599.7,531.1,599.5,531.1,599.2,531.1z"/>
									</g>
									<g>
										<path class="st2" d="M593,526.9c-1.3-0.1-2.6,0-3.8,0l0,18.2c0,1.3,1,2.3,2.3,2.3c0.3,0,0.5,0,0.8-0.1            c0.9-0.3,1.5-1.2,1.5-2.1l0-18.2C593.5,527,593.2,527,593,526.9z"/>
									</g>
									<g>
										<path class="st2" d="M611.3,522.8c-1.3,1.1-2.4,2.3-3.6,3.5l6.4,6.5c1.2,1.2,3.1,1.2,4.2,0c0.3-0.2,0.4-0.5,0.6-0.8            c0.5-1.1,0.4-2.5-0.6-3.4l-6.9-7.1C611.3,521.8,611.6,522.6,611.3,522.8z"/>
									</g>
								</g>
							</g>
							
								<rect x="592.7" y="512.9" transform="matrix(1 -1.793119e-03 1.793119e-03 1 -0.9252 1.0787)" class="st2" width="16.9" height="7.2"/>
						</g>
					</g>
					<g>
						<path class="st4" d="M660.4,560.3l-15.7-44.2c-1.8-5-7.3-7.7-12.3-5.9c-5,1.8-7.7,7.3-5.9,12.3l15.7,44.2L660.4,560.3z"/>
						<path class="st4" d="M652.6,618.3l8-54c0.8-5.3-2.9-10.2-8.2-11c-5.3-0.8-10.2,2.9-11,8.2l-8,54L652.6,618.3z"/>
					</g>
					<path class="st5" d="M633.5,615.1l-1.6,10.1c0,0,25.6,3.9,33,5.1c0.6-4-12.4-12.2-12.4-12.2L633.5,615.1z"/>
					<g>
						<g>
							<g>
								<path class="st6" d="M623,529.6c17,0,31.2,2.4,31.2-20.1h-62.4C591.8,532.5,606,529.6,623,529.6z"/>
								<g>
									<path class="st6" d="M620.3,626.7l-0.3-54.6c0-5.3-4.4-9.6-9.7-9.6c-5.3,0-9.6,4.4-9.6,9.7l0.3,54.6L620.3,626.7z"/>
									<path class="st6" d="M620,570.1l-0.2-50.9c0-5.3-4.4-9.6-9.7-9.6c-5.3,0-9.6,4.4-9.6,9.7l0,1.6h0l0.2,50.9           c0,5.3,4.4,9.6,9.7,9.6c5.3,0,9.6-4.4,9.6-9.7V570.1L620,570.1z"/>
								</g>
								<path class="st8" d="M601,626.4l0,10.2c0,0,25.9,0,33.4,0c0-4-14.1-10.2-14.1-10.2L601,626.4z"/>
								<path class="st8" d="M627.3,425.9c-19.3,0-35.5-1.6-35.5,45.1v38.5h62.4V471C654.2,437.6,646.6,425.9,627.3,425.9z"/>
							</g>
						</g>
					</g>
					<g>
						<g>
							<path class="st10" d="M629.4,523.4l-20.6-28.8c-2.7-3.8-1.9-9.1,1.9-11.8c3.8-2.7,9.1-1.9,11.8,1.9l20.6,28.8L629.4,523.4z"/>
							<path class="st10" d="M616.1,429.6c-4.7,0-8.5,3.7-8.5,8.4l-0.5,51.4c0,4.7,3.7,8.5,8.4,8.5c4.7,0,8.5-3.7,8.5-8.4l0.5-51.5         C624.5,433.5,620.7,429.6,616.1,429.6z"/>
							<path class="st11" d="M616.3,428.8c-5.6-0.1-10.2,4.5-10.3,10.1l-0.4,37.8c6.8-0.2,13.6,0.1,20.4,0l0.4-37.6         C626.4,433.5,621.9,428.9,616.3,428.8z"/>
							<g>
								<g>
									<g>
										<path class="st10" d="M643,542.3c5.5-3.5,10.7-7.6,16.1-11.5l-8.2-11.4c-3.8-5.3-11.1-6.5-16.3-2.7            c-1.1,0.8-2,1.7-2.8,2.8c-2.8,4-2.9,9.4,0.1,13.5l8,11.2C640.9,543.6,642,542.9,643,542.3z"/>
									</g>
									<g>
										<path class="st10" d="M652.3,522.5c-1.1,0.7-2.1,1.5-3.1,2.2l10.6,14.8c0.7,1,2.2,1.3,3.2,0.5c0.2-0.2,0.4-0.3,0.5-0.5            c0.5-0.8,0.6-1.8,0-2.6l-10.5-14.8C652.7,522.2,652.5,522.3,652.3,522.5z"/>
									</g>
									<g>
										<path class="st10" d="M649,528.9c-1.1,0.7-2.1,1.5-3.1,2.2l10.6,14.8c0.7,1,2.2,1.3,3.2,0.5c0.2-0.2,0.4-0.3,0.5-0.5            c0.5-0.8,0.6-1.8,0-2.6l-10.6-14.8C649.4,528.6,649.2,528.8,649,528.9z"/>
									</g>
									<g>
										<path class="st10" d="M643.3,531.6c-1.1,0.7-2.1,1.5-3.1,2.2l10.5,14.9c0.7,1,2.1,1.3,3.2,0.5c0.2-0.2,0.4-0.3,0.5-0.5            c0.5-0.8,0.6-1.8,0-2.6l-10.5-14.9C643.7,531.4,643.5,531.5,643.3,531.6z"/>
									</g>
									<g>
										<path class="st10" d="M635.8,531.9c-1.1,0.7-2.1,1.5-3.1,2.2l10.6,14.8c0.7,1,2.2,1.3,3.2,0.5c0.2-0.2,0.4-0.3,0.5-0.5            c0.5-0.8,0.6-1.8,0-2.6l-10.5-14.8C636.2,531.6,636,531.7,635.8,531.9z"/>
									</g>
									<g>
										<path class="st10" d="M648.4,517.8c-0.4,1.6-0.6,3.3-0.9,5l9,1.6c1.6,0.3,3.2-0.8,3.5-2.4c0.1-0.3,0.1-0.7,0-1            c-0.2-1.2-1.2-2.2-2.4-2.5l-9.7-1.7C647.7,517,648.4,517.5,648.4,517.8z"/>
									</g>
								</g>
							</g>
							
								<rect x="627.9" y="515.1" transform="matrix(0.8124 -0.5831 0.5831 0.8124 -183.0499 468.3733)" class="st10" width="16.9" height="7.2"/>
						</g>
					</g>
				</g>
			</g>
			<g>
				<rect x="801.8" y="411.7" class="st7" width="16.3" height="23.1"/>
				<path class="st2" d="M842.2,384.7c2.2,0,4,1.8,4,4l0,0c0,2.2-1.8,4-4,4h-2.1c-2.2,0-4-1.8-4-4l0,0c0-2.2,1.8-4,4-4H842.2z"/>
				<g>
					<path class="st4" d="M790,350.4c5.6-8.5,8.2-14.1,19.1-14.1c22.9,0,38.2,14,38.2,31.2v1.1c-6,3.5-13,5.5-20.4,5.5       C810.5,374.1,796.4,364.4,790,350.4z"/>
					<path class="st9" d="M825.5,396.2c0,1.2,1,2.2,2.2,2.2h9.9c1.2,0,2.2-1,2.2-2.2l0,0c0-1.2,0.2-2.2-1-2.2h-11.2       C826.5,394,825.5,395,825.5,396.2L825.5,396.2z"/>
					<path class="st10" d="M837.8,405.1c-5.5-0.2-10-4.5-10.6-9.9h13.7c0.2-1.4,0.3-2.8,0.3-4.3v-23.4c0-17.2-14-31.2-31.2-31.2       c-17.2,0-31.2,14-31.2,31.2v23.4c0,17.2,14,31.2,31.2,31.2C822.1,422.1,832.6,415.2,837.8,405.1L837.8,405.1z"/>
					<path class="st6" d="M787.6,345.8c-5.4,5.6-8.8,13.2-8.8,21.7v23.4c0,9.1,3.9,17.2,10,22.9c5.4-5.6,8.8-13.2,8.8-21.7v-23.4       C797.6,359.7,793.7,351.5,787.6,345.8z"/>
					<path class="st4" d="M836.1,350.4c-5.6-8.5-15.2-14.1-26.1-14.1c-17.2,0-31.2,14-31.2,31.2v9.9c9.4,0,13,0,20.4,0       C815.6,377.3,829.7,364.4,836.1,350.4z"/>
					<path class="st7" d="M797.6,392.6L797.6,392.6c-4.2,0-7.6-3.4-7.6-7.6l0,0c0-4.2,3.4-7.6,7.6-7.6l0,0       C797.6,384.1,797.6,384.1,797.6,392.6z"/>
				</g>
				<path class="st4" d="M834.2,380c0,1.8-1.5,3.3-3.3,3.3l0,0c-1.8,0-3.3-1.5-3.3-3.3v-5.4c0-1.8,1.5-3.3,3.3-3.3l0,0      c1.8,0,3.3,1.5,3.3,3.3V380z"/>
			</g>
			<g>
				<g>
					<g>
						<path class="st2" d="M792,521.3l-6-34.9c-0.8-4.6,2.3-9,6.9-9.8c4.6-0.8,9,2.3,9.8,6.9l6,34.9L792,521.3z"/>
						<path class="st2" d="M821,431.1c-4.2-2.1-9.2-0.4-11.3,3.8l-22.9,46c-2.1,4.2-0.4,9.2,3.8,11.3c4.2,2.1,9.2,0.4,11.3-3.8        l22.9-46.1C826.9,438.3,825.2,433.2,821,431.1z"/>
						<path class="st3" d="M821.5,430.5c-5-2.5-11.2-0.4-13.7,4.6l-16.9,33.8c6.2,2.8,12.2,6.1,18.4,8.9l16.8-33.6        C828.6,439.1,826.5,433,821.5,430.5z"/>
						<g>
							<g>
								<g>
									<path class="st2" d="M796,544.2c6.5-0.8,13-2.1,19.5-3.3l-2.4-13.8c-1.1-6.4-7.2-10.6-13.5-9.5c-1.3,0.2-2.6,0.7-3.7,1.3           c-4.2,2.4-6.7,7.2-5.8,12.2l2.3,13.6C793.6,544.5,794.8,544.4,796,544.2z"/>
								</g>
								<g>
									<path class="st2" d="M813,530.4c-1.3,0.2-2.5,0.4-3.8,0.6l3,18c0.2,1.2,1.4,2.1,2.6,1.9c0.3,0,0.5-0.1,0.7-0.3           c0.8-0.5,1.3-1.4,1.1-2.4l-3-17.9C813.5,530.4,813.2,530.4,813,530.4z"/>
								</g>
								<g>
									<path class="st2" d="M807.3,534.8c-1.3,0.1-2.5,0.4-3.8,0.6l3,18c0.2,1.2,1.4,2.1,2.6,1.9c0.3,0,0.5-0.1,0.7-0.3           c0.8-0.5,1.3-1.4,1.1-2.4l-3-17.9C807.8,534.8,807.5,534.8,807.3,534.8z"/>
								</g>
								<g>
									<path class="st2" d="M801,534.8c-1.3,0.1-2.5,0.4-3.8,0.6l2.9,18c0.2,1.2,1.4,2.1,2.6,1.9c0.3,0,0.5-0.1,0.7-0.2           c0.8-0.5,1.3-1.4,1.2-2.4l-2.9-17.9C801.4,534.7,801.2,534.8,801,534.8z"/>
								</g>
								<g>
									<path class="st2" d="M794.1,531.7c-1.3,0.2-2.5,0.4-3.8,0.6l3,18c0.2,1.2,1.4,2.1,2.6,1.9c0.3,0,0.5-0.1,0.7-0.3           c0.8-0.5,1.3-1.4,1.1-2.4l-3-17.9C794.6,531.7,794.3,531.7,794.1,531.7z"/>
								</g>
								<g>
									<path class="st2" d="M811.5,524.6c-1.1,1.3-2,2.7-3,4.1l7.4,5.3c1.3,1,3.2,0.7,4.2-0.7c0.2-0.3,0.4-0.6,0.4-0.9           c0.4-1.2-0.1-2.5-1.1-3.3l-8-5.8C811.3,523.6,811.7,524.3,811.5,524.6z"/>
								</g>
							</g>
						</g>
						
							<rect x="791.9" y="516.5" transform="matrix(0.9855 -0.1698 0.1698 0.9855 -76.6884 143.448)" class="st2" width="16.9" height="7.2"/>
					</g>
				</g>
				<g>
					<path class="st4" d="M852.6,556l-22.1-41.4c-2.5-4.7-8.3-6.5-13.1-4.1c-4.7,2.5-6.5,8.3-4.1,13.1l22.1,41.4L852.6,556z"/>
					<path class="st4" d="M853.5,614.5l-0.1-54.6c0-5.3-4.4-9.6-9.7-9.6c-5.3,0-9.6,4.4-9.6,9.7l0.1,54.6L853.5,614.5z"/>
				</g>
				<path class="st5" d="M834.1,614.2l0,10.2c0,0,25.9,0.1,33.4,0.1c0-4-14-10.3-14-10.3L834.1,614.2z"/>
				<g>
					<g>
						<g>
							<path class="st6" d="M810,529.6c17,0,31.2,2.4,31.2-20.1h-62.4C778.8,532.5,793,529.6,810,529.6z"/>
							<g>
								<path class="st6" d="M808.6,565.9l-2.2-46.9c-0.2-5.3-4.7-9.5-10.1-9.3c-5.3,0.2-9.5,4.7-9.3,10.1l2.2,46.9L808.6,565.9z"/>
								<path class="st6" d="M784.3,619.2l23.3-49.4c2.3-4.8,0.2-10.6-4.7-12.9c-4.8-2.3-10.6-0.2-12.9,4.7L766.8,611L784.3,619.2z"/>
							</g>
							<path class="st8" d="M767,610.6l-4.4,9.2c0,0,23.4,11.2,30.1,14.4c1.7-3.6-8.3-15.3-8.3-15.3L767,610.6z"/>
							<path class="st8" d="M814.3,425.9c-19.3,0-35.5-1.6-35.5,45.1v38.5h62.4V471C841.2,437.6,833.6,425.9,814.3,425.9z"/>
						</g>
					</g>
				</g>
				<g>
					<g>
						<path class="st10" d="M836.5,517.9l-26.9-23c-3.5-3-4-8.4-0.9-11.9c3-3.5,8.4-4,11.9-0.9l26.9,23L836.5,517.9z"/>
						<path class="st10" d="M801.3,429.9c-4.5,1.1-7.3,5.6-6.3,10.2l11.7,50c1.1,4.5,5.6,7.4,10.1,6.3c4.5-1.1,7.4-5.6,6.3-10.1        l-11.8-50.1C810.4,431.6,805.9,428.8,801.3,429.9z"/>
						<path class="st11" d="M801.3,429.1c-5.5,1.3-8.9,6.8-7.6,12.3l8.6,36.8c6.6-1.8,13.3-3.1,19.8-4.9l-8.5-36.6        C812.3,431.2,806.8,427.8,801.3,429.1z"/>
						<g>
							<g>
								<g>
									<path class="st10" d="M854.3,532.9c4.5-4.8,8.6-9.9,12.9-15l-10.7-9.1c-4.9-4.2-12.3-3.6-16.5,1.3c-0.9,1-1.6,2.2-2,3.4           c-1.7,4.5-0.6,9.8,3.3,13.1l10.5,9C852.6,534.7,853.4,533.8,854.3,532.9z"/>
								</g>
								<g>
									<path class="st10" d="M858.5,511.5c-0.9,0.9-1.7,1.9-2.5,2.9l13.8,11.9c1,0.8,2.4,0.7,3.2-0.2c0.2-0.2,0.3-0.4,0.4-0.7           c0.3-0.9,0.1-1.9-0.6-2.6L859,511C858.9,511.1,858.7,511.3,858.5,511.5z"/>
								</g>
								<g>
									<path class="st10" d="M856.9,518.5c-0.9,0.9-1.7,1.9-2.5,2.9l13.8,11.9c1,0.8,2.4,0.7,3.2-0.2c0.2-0.2,0.3-0.4,0.4-0.7           c0.3-0.9,0.1-1.9-0.6-2.6L857.4,518C857.3,518.1,857.1,518.3,856.9,518.5z"/>
								</g>
								<g>
									<path class="st10" d="M852,522.5c-0.9,0.9-1.7,1.9-2.5,2.9l13.7,12c0.9,0.8,2.4,0.7,3.2-0.2c0.2-0.2,0.3-0.4,0.4-0.7           c0.3-0.9,0.1-1.9-0.6-2.6L852.5,522C852.4,522.1,852.2,522.3,852,522.5z"/>
								</g>
								<g>
									<path class="st10" d="M844.8,524.5c-0.9,0.9-1.7,1.9-2.5,2.9l13.8,11.9c1,0.8,2.4,0.7,3.2-0.2c0.2-0.2,0.3-0.4,0.4-0.7           c0.3-0.9,0.1-1.9-0.6-2.6L845.3,524C845.1,524.2,845,524.3,844.8,524.5z"/>
								</g>
								<g>
									<path class="st10" d="M853.6,507.9c0,1.7,0.2,3.4,0.3,5l9.1-0.6c1.7-0.1,2.9-1.5,2.8-3.2c0-0.3-0.1-0.7-0.2-1           c-0.5-1.1-1.6-1.9-3-1.8l-9.9,0.6C852.8,507.3,853.6,507.6,853.6,507.9z"/>
								</g>
							</g>
						</g>
						
							<rect x="833.7" y="508" transform="matrix(0.6506 -0.7594 0.7594 0.6506 -94.222 818.3484)" class="st10" width="16.9" height="7.2"/>
					</g>
				</g>
			</g>
		</g>
		<g>
			<g>
				<rect x="990.3" y="411.7" class="st7" width="16.3" height="23.1"/>
				<path class="st2" d="M1030.7,384.7c2.2,0,4,1.8,4,4l0,0c0,2.2-1.8,4-4,4h-2.1c-2.2,0-4-1.8-4-4l0,0c0-2.2,1.8-4,4-4H1030.7z"/>
				<g>
					<path class="st4" d="M978.4,350.4c5.6-8.5,8.2-14.1,19.1-14.1c22.9,0,38.2,14,38.2,31.2v1.1c-6,3.5-13,5.5-20.4,5.5       C998.9,374.1,984.8,364.4,978.4,350.4z"/>
					<path class="st9" d="M1013.9,396.2c0,1.2,1,2.2,2.2,2.2h9.9c1.2,0,2.2-1,2.2-2.2l0,0c0-1.2,0.2-2.2-1-2.2h-11.2       C1014.9,394,1013.9,395,1013.9,396.2L1013.9,396.2z"/>
					<path class="st10" d="M1026.2,405.1c-5.5-0.2-10-4.5-10.6-9.9h13.7c0.2-1.4,0.3-2.8,0.3-4.3v-23.4c0-17.2-14-31.2-31.2-31.2       c-17.2,0-31.2,14-31.2,31.2v23.4c0,17.2,14,31.2,31.2,31.2C1010.5,422.1,1021,415.2,1026.2,405.1L1026.2,405.1z"/>
					<path class="st6" d="M976,345.8c-5.4,5.6-8.8,13.2-8.8,21.7v23.4c0,9.1,3.9,17.2,10,22.9c5.4-5.6,8.8-13.2,8.8-21.7v-23.4       C986,359.7,982.2,351.5,976,345.8z"/>
					<path class="st4" d="M1024.5,350.4c-5.6-8.5-15.2-14.1-26.1-14.1c-17.2,0-31.2,14-31.2,31.2v9.9c9.4,0,13,0,20.4,0       C1004,377.3,1018.1,364.4,1024.5,350.4z"/>
					<path class="st7" d="M986,392.6L986,392.6c-4.2,0-7.6-3.4-7.6-7.6l0,0c0-4.2,3.4-7.6,7.6-7.6l0,0       C986,384.1,986,384.1,986,392.6z"/>
				</g>
				<path class="st4" d="M1022.6,380c0,1.8-1.5,3.3-3.3,3.3l0,0c-1.8,0-3.3-1.5-3.3-3.3v-5.4c0-1.8,1.5-3.3,3.3-3.3l0,0      c1.8,0,3.3,1.5,3.3,3.3V380z"/>
			</g>
			<g>
				<g>
					<g>
						<path class="st2" d="M945.8,499.6l10.9-33.7c1.4-4.4,6.2-6.9,10.6-5.4c4.4,1.4,6.9,6.2,5.4,10.6l-10.9,33.7L945.8,499.6z"/>
						<path class="st2" d="M1013.3,433.1c-2.7-3.8-8-4.6-11.8-1.9l-41.6,30.2c-3.8,2.7-4.6,8-1.9,11.8c2.7,3.8,8,4.6,11.8,1.9        l41.7-30.2C1015.3,442.2,1016.1,436.9,1013.3,433.1z"/>
						<path class="st3" d="M1014.1,432.8c-3.3-4.6-9.7-5.6-14.2-2.3l-30.6,22.1c4.2,5.3,8,11,12.1,16.4l30.5-22        C1016.4,443.7,1017.4,437.3,1014.1,432.8z"/>
						<g>
							<g>
								<g>
									<path class="st2" d="M938.7,521.7c6.1,2.3,12.5,4.1,18.8,6.1l4.3-13.4c2-6.2-1.4-12.8-7.5-14.7c-1.3-0.4-2.6-0.6-3.9-0.6           c-4.8,0.1-9.3,3.3-10.8,8.1l-4.2,13.1C936.5,520.8,937.6,521.3,938.7,521.7z"/>
								</g>
								<g>
									<path class="st2" d="M960.2,517.4c-1.2-0.5-2.4-0.8-3.7-1.2l-5.7,17.3c-0.4,1.2,0.3,2.5,1.5,2.9c0.3,0.1,0.5,0.1,0.8,0.1           c0.9,0,1.8-0.6,2.1-1.6l5.6-17.3C960.6,517.6,960.4,517.5,960.2,517.4z"/>
								</g>
								<g>
									<path class="st2" d="M953.1,518.6c-1.2-0.5-2.4-0.8-3.7-1.2l-5.7,17.3c-0.4,1.2,0.3,2.5,1.5,2.9c0.3,0.1,0.5,0.1,0.8,0.1           c0.9,0,1.8-0.6,2.1-1.6l5.6-17.3C953.5,518.8,953.3,518.7,953.1,518.6z"/>
								</g>
								<g>
									<path class="st2" d="M947.5,515.6c-1.2-0.5-2.4-0.8-3.6-1.2l-5.7,17.3c-0.4,1.2,0.3,2.5,1.4,2.9c0.3,0.1,0.5,0.1,0.8,0.1           c0.9,0,1.8-0.6,2.1-1.6l5.7-17.3C947.9,515.8,947.7,515.7,947.5,515.6z"/>
								</g>
								<g>
									<path class="st2" d="M942.8,509.7c-1.2-0.5-2.4-0.8-3.7-1.2l-5.7,17.3c-0.4,1.2,0.3,2.5,1.5,2.9c0.3,0.1,0.5,0.1,0.8,0.1           c0.9,0,1.8-0.6,2.1-1.6l5.6-17.3C943.3,509.9,943.1,509.8,942.8,509.7z"/>
								</g>
								<g>
									<path class="st2" d="M961.6,511.5c-1.5,0.7-3,1.5-4.5,2.2l4.1,8.2c0.7,1.5,2.5,2.1,4,1.4c0.3-0.2,0.6-0.4,0.8-0.6           c0.9-0.9,1.1-2.3,0.5-3.4l-4.4-8.9C961.8,510.5,961.9,511.4,961.6,511.5z"/>
								</g>
							</g>
						</g>
						
							<rect x="945.3" y="498.7" transform="matrix(0.9518 0.3069 -0.3069 0.9518 200.1636 -268.4427)" class="st2" width="16.9" height="7.2"/>
					</g>
				</g>
				<g>
					<g>
						<g>
							<g>
								<path class="st4" d="M1046,562.2l-27-47.5c-2.7-4.6-8.6-6.2-13.2-3.6c-4.6,2.7-6.2,8.6-3.6,13.2l27,47.5L1046,562.2z"/>
								<path class="st4" d="M1060.7,617.8l-13.5-52.9c-1.3-5.2-6.6-8.3-11.8-6.9c-5.2,1.3-8.3,6.6-6.9,11.8l13.5,52.9L1060.7,617.8          z"/>
							</g>
							<path class="st5" d="M1041.9,622.2l2.5,9.9c0,0,25.1-6.3,32.4-8.1c-1-3.9-16.1-6.5-16.1-6.5L1041.9,622.2z"/>
							<path class="st6" d="M998.4,529.6c17,0,31.2,2.4,31.2-20.1h-62.4C967.3,532.5,981.4,529.6,998.4,529.6z"/>
							<path class="st8" d="M1002.7,425.9c-19.3,0-35.5-1.6-35.5,45.1v38.5h62.4V471C1029.6,437.6,1022,425.9,1002.7,425.9z"/>
						</g>
					</g>
				</g>
				<g>
					<g>
						<path class="st10" d="M1056,496.5l-34-9.9c-4.5-1.3-7.1-6-5.8-10.5c1.3-4.5,6-7.1,10.5-5.8l34,9.9L1056,496.5z"/>
						<path class="st10" d="M987.6,430.9c-3.7,2.9-4.4,8.2-1.5,11.9l31.4,40.7c2.8,3.7,8.2,4.4,11.8,1.5c3.7-2.8,4.4-8.1,1.5-11.8        l-31.4-40.8C996.6,428.8,991.3,428.1,987.6,430.9z"/>
						<path class="st11" d="M987.2,430.2c-4.5,3.4-5.3,9.8-1.9,14.3l23,30c5.2-4.4,10.8-8.3,16-12.6l-22.9-29.8        C998.1,427.6,991.7,426.7,987.2,430.2z"/>
						<g>
							<g>
								<g>
									<path class="st10" d="M1078.4,502.9c2.2-6.2,3.8-12.6,5.5-18.9l-13.5-3.9c-6.2-1.8-12.7,1.8-14.5,8           c-0.4,1.3-0.5,2.6-0.5,3.9c0.3,4.8,3.5,9.2,8.4,10.6l13.2,3.8C1077.6,505.2,1078,504,1078.4,502.9z"/>
								</g>
								<g>
									<path class="st10" d="M1073.4,481.6c-0.4,1.2-0.7,2.5-1.1,3.7l17.5,5.1c1.2,0.4,2.5-0.3,2.8-1.5c0.1-0.3,0.1-0.5,0.1-0.8           c-0.1-0.9-0.7-1.8-1.6-2.1l-17.4-5.1C1073.6,481.1,1073.5,481.4,1073.4,481.6z"/>
								</g>
								<g>
									<path class="st10" d="M1074.9,488.6c-0.4,1.2-0.7,2.4-1.1,3.7l17.5,5.1c1.2,0.4,2.5-0.3,2.8-1.5c0.1-0.3,0.1-0.5,0.1-0.8           c-0.1-0.9-0.7-1.8-1.6-2.1l-17.4-5.1C1075,488.2,1074.9,488.4,1074.9,488.6z"/>
								</g>
								<g>
									<path class="st10" d="M1072,494.3c-0.4,1.2-0.8,2.4-1.1,3.7l17.5,5.2c1.2,0.4,2.5-0.3,2.8-1.5c0.1-0.3,0.1-0.5,0.1-0.8           c0-0.9-0.7-1.8-1.6-2.1l-17.4-5.2C1072.2,493.9,1072.1,494.1,1072,494.3z"/>
								</g>
								<g>
									<path class="st10" d="M1066.3,499.1c-0.4,1.2-0.7,2.5-1.1,3.7l17.5,5.1c1.2,0.3,2.5-0.3,2.8-1.5c0.1-0.3,0.1-0.5,0.1-0.8           c0-0.9-0.7-1.8-1.6-2.1l-17.4-5.1C1066.5,498.7,1066.4,498.9,1066.3,499.1z"/>
								</g>
								<g>
									<path class="st10" d="M1067.5,480.4c0.7,1.5,1.6,3,2.4,4.5l8.1-4.4c1.5-0.8,2-2.6,1.2-4.1c-0.2-0.3-0.4-0.6-0.6-0.8           c-0.9-0.8-2.3-1-3.4-0.4l-8.7,4.7C1066.5,480.1,1067.4,480.1,1067.5,480.4z"/>
								</g>
							</g>
						</g>
						
							<rect x="1050.1" y="484.8" transform="matrix(0.2785 -0.9604 0.9604 0.2785 294.6154 1369.0524)" class="st10" width="16.9" height="7.2"/>
					</g>
				</g>
				<g>
					<path class="st6" d="M990.1,510.2c-5.1-1.6-10.5,1.3-12.1,6.4l-0.8,2.4l0,0l-14.6,46.3c-1.6,5.1,1.3,10.5,6.4,12.1       c5.1,1.6,10.5-1.3,12.1-6.4l0.8-2.4l0,0l14.6-46.3C998,517.2,995.2,511.8,990.1,510.2z"/>
					<path class="st6" d="M948.9,620.2l30.5-45.3c3-4.4,1.8-10.4-2.7-13.4c-4.4-3-10.4-1.8-13.4,2.7l-30.5,45.3L948.9,620.2z"/>
				</g>
				<path class="st8" d="M933.1,609.1l-5.7,8.4c0,0,21.4,14.6,27.6,18.8c2.3-3.3-5.9-16.4-5.9-16.4L933.1,609.1z"/>
			</g>
		</g>
		<g>
			<rect x="1177.3" y="411.7" class="st7" width="16.3" height="23.1"/>
			<path class="st2" d="M1217.7,384.7c2.2,0,4,1.8,4,4l0,0c0,2.2-1.8,4-4,4h-2.1c-2.2,0-4-1.8-4-4l0,0c0-2.2,1.8-4,4-4H1217.7z"/>
			<g>
				<path class="st4" d="M1165.4,350.4c5.6-8.5,8.2-14.1,19.1-14.1c22.9,0,38.2,14,38.2,31.2v1.1c-6,3.5-13,5.5-20.4,5.5      C1185.9,374.1,1171.8,364.4,1165.4,350.4z"/>
				<path class="st9" d="M1200.9,396.2c0,1.2,1,2.2,2.2,2.2h9.9c1.2,0,2.2-1,2.2-2.2l0,0c0-1.2,0.2-2.2-1-2.2h-11.2      C1201.9,394,1200.9,395,1200.9,396.2L1200.9,396.2z"/>
				<path class="st10" d="M1213.2,405.1c-5.5-0.2-10-4.5-10.6-9.9h13.7c0.2-1.4,0.3-2.8,0.3-4.3v-23.4c0-17.2-14-31.2-31.2-31.2      c-17.2,0-31.2,14-31.2,31.2v23.4c0,17.2,14,31.2,31.2,31.2C1197.5,422.1,1208,415.2,1213.2,405.1L1213.2,405.1z"/>
				<path class="st6" d="M1163,345.8c-5.4,5.6-8.8,13.2-8.8,21.7v23.4c0,9.1,3.9,17.2,10,22.9c5.4-5.6,8.8-13.2,8.8-21.7v-23.4      C1173,359.7,1169.2,351.5,1163,345.8z"/>
				<path class="st4" d="M1211.5,350.4c-5.6-8.5-15.2-14.1-26.1-14.1c-17.2,0-31.2,14-31.2,31.2v9.9c9.4,0,13,0,20.4,0      C1191,377.3,1205.1,364.4,1211.5,350.4z"/>
				<path class="st7" d="M1173,392.6L1173,392.6c-4.2,0-7.6-3.4-7.6-7.6l0,0c0-4.2,3.4-7.6,7.6-7.6l0,0      C1173,384.1,1173,384.1,1173,392.6z"/>
			</g>
			<path class="st4" d="M1209.6,380c0,1.8-1.5,3.3-3.3,3.3l0,0c-1.8,0-3.3-1.5-3.3-3.3v-5.4c0-1.8,1.5-3.3,3.3-3.3l0,0     c1.8,0,3.3,1.5,3.3,3.3V380z"/>
		</g>
		<g>
			<g>
				<g>
					<path class="st2" d="M1145.1,510.8l4-35.2c0.5-4.6,4.7-8,9.4-7.4c4.6,0.5,8,4.7,7.4,9.4l-4.1,35.2L1145.1,510.8z"/>
					<path class="st2" d="M1198.3,432.3c-3.4-3.2-8.8-2.9-11.9,0.5l-34.9,37.7c-3.2,3.4-3,8.8,0.5,11.9c3.4,3.2,8.8,3,11.9-0.5       l34.9-37.8C1201.9,440.8,1201.7,435.5,1198.3,432.3z"/>
					<path class="st3" d="M1199,431.8c-4.1-3.8-10.6-3.6-14.4,0.6l-25.7,27.7c5.2,4.4,10,9.2,15.1,13.7l25.6-27.5       C1203.3,442.1,1203.1,435.7,1199,431.8z"/>
					<g>
						<g>
							<g>
								<path class="st2" d="M1142.5,533.9c6.5,1.1,13.1,1.6,19.6,2.3l1.6-13.9c0.7-6.4-3.9-12.2-10.3-13c-1.4-0.2-2.7-0.1-3.9,0.2          c-4.7,1.1-8.4,5-9,10.1l-1.6,13.7C1140.1,533.4,1141.3,533.7,1142.5,533.9z"/>
							</g>
							<g>
								<path class="st2" d="M1162.7,525.4c-1.3-0.2-2.5-0.3-3.8-0.5l-2.1,18.1c-0.1,1.2,0.7,2.4,2,2.5c0.3,0,0.5,0,0.8,0          c0.9-0.2,1.6-1,1.8-2l2.1-18C1163.2,525.5,1162.9,525.4,1162.7,525.4z"/>
							</g>
							<g>
								<path class="st2" d="M1156,528c-1.3-0.2-2.5-0.3-3.8-0.5l-2.1,18.1c-0.1,1.3,0.7,2.4,2,2.5c0.3,0,0.5,0,0.8,0          c0.9-0.2,1.6-1,1.8-2l2.1-18.1C1156.5,528.1,1156.2,528,1156,528z"/>
							</g>
							<g>
								<path class="st2" d="M1149.9,526.2c-1.3-0.2-2.5-0.3-3.8-0.5l-2.2,18.1c-0.2,1.2,0.7,2.4,2,2.5c0.3,0,0.5,0,0.8,0          c0.9-0.2,1.7-1,1.8-1.9l2.2-18C1150.4,526.3,1150.2,526.2,1149.9,526.2z"/>
							</g>
							<g>
								<path class="st2" d="M1144.2,521.3c-1.3-0.2-2.5-0.3-3.8-0.5l-2.1,18.1c-0.1,1.3,0.8,2.4,2,2.5c0.3,0,0.5,0,0.8,0          c0.9-0.2,1.6-1,1.8-2l2.1-18.1C1144.7,521.4,1144.4,521.4,1144.2,521.3z"/>
							</g>
							<g>
								<path class="st2" d="M1162.9,519.4c-1.4,1-2.7,2-4,3.1l5.6,7.2c1,1.3,2.9,1.6,4.2,0.5c0.3-0.2,0.5-0.5,0.7-0.7          c0.7-1,0.7-2.4-0.2-3.5l-6-7.8C1163,518.3,1163.2,519.2,1162.9,519.4z"/>
							</g>
						</g>
					</g>
					
						<rect x="1145" y="508.3" transform="matrix(0.9935 0.114 -0.114 0.9935 65.8575 -128.1268)" class="st2" width="16.9" height="7.2"/>
				</g>
			</g>
			<g>
				<path class="st6" d="M1233.5,550.8l-28.3-37.5c-3.2-4.3-9.2-5.2-13.5-2c-4.3,3.2-5.2,9.2-2,13.5l28.3,37.4L1233.5,550.8z"/>
				<path class="st6" d="M1243.6,608.4l-8.6-53.9c-0.9-5.3-5.8-8.8-11.1-8c-5.3,0.9-8.8,5.8-8,11.1l8.6,53.9L1243.6,608.4z"/>
			</g>
			<path class="st8" d="M1224.4,611.1l1.6,10.1c0,0,25.6-4,33-5.1c-0.6-4-15.5-7.9-15.5-7.9L1224.4,611.1z"/>
			<g>
				<g>
					<g>
						<g>
							<path class="st4" d="M1188.1,562.1l-1.8-46.9c-0.2-5.3-4.7-9.5-10-9.3c-5.3,0.2-9.5,4.6-9.3,10l1.8,46.9L1188.1,562.1z"/>
							<path class="st4" d="M1163.4,615.1l23.7-49.2c2.3-4.8,0.3-10.6-4.6-12.9c-4.8-2.3-10.6-0.3-12.9,4.5l-23.7,49.2L1163.4,615.1         z"/>
						</g>
						<path class="st5" d="M1146.2,606.4l-4.5,9.2c0,0,23.3,11.4,30,14.7c1.8-3.6-8.2-15.3-8.2-15.3L1146.2,606.4z"/>
						<path class="st6" d="M1185.4,529.6c17,0,31.2,2.4,31.2-20.1h-62.4C1154.2,532.5,1168.4,529.6,1185.4,529.6z"/>
						<path class="st8" d="M1189.7,425.9c-19.3,0-35.5-1.6-35.5,45.1v38.5h62.4V471C1216.6,437.6,1209,425.9,1189.7,425.9z"/>
					</g>
				</g>
			</g>
			<g>
				<g>
					<path class="st10" d="M1208,519.5l-25.8-24.3c-3.4-3.2-3.6-8.5-0.4-11.9c3.2-3.4,8.5-3.6,11.9-0.4l25.8,24.3L1208,519.5z"/>
					<path class="st10" d="M1176.9,430c-4.6,0.9-7.6,5.3-6.7,9.9l9.4,50.5c0.9,4.6,5.3,7.6,9.9,6.8c4.6-0.9,7.6-5.3,6.8-9.8       l-9.4-50.6C1185.9,432.2,1181.5,429.1,1176.9,430z"/>
					<path class="st11" d="M1176.9,429.2c-5.5,1-9.2,6.4-8.2,11.9l6.9,37.2c6.6-1.5,13.4-2.5,20-4l-6.8-36.9       C1187.8,431.8,1182.4,428.2,1176.9,429.2z"/>
					<g>
						<g>
							<g>
								<path class="st10" d="M1225,535.4c4.7-4.5,9.1-9.5,13.5-14.4l-10.2-9.6c-4.7-4.4-12.1-4.2-16.5,0.5c-0.9,1-1.7,2.1-2.2,3.3          c-2,4.4-1,9.8,2.7,13.3l10,9.4C1223.3,537,1224.2,536.2,1225,535.4z"/>
							</g>
							<g>
								<path class="st10" d="M1230.3,514.1c-0.9,0.9-1.8,1.8-2.6,2.8l13.2,12.5c0.9,0.9,2.4,0.8,3.2-0.1c0.2-0.2,0.3-0.4,0.4-0.6          c0.4-0.9,0.2-1.9-0.5-2.6l-13.2-12.5C1230.7,513.8,1230.5,514,1230.3,514.1z"/>
							</g>
							<g>
								<path class="st10" d="M1228.4,521.1c-0.9,0.9-1.8,1.8-2.6,2.8l13.2,12.5c0.9,0.9,2.4,0.8,3.2-0.1c0.2-0.2,0.3-0.4,0.4-0.6          c0.4-0.9,0.2-1.9-0.5-2.6l-13.2-12.5C1228.7,520.8,1228.5,520.9,1228.4,521.1z"/>
							</g>
							<g>
								<path class="st10" d="M1223.3,524.8c-0.9,0.9-1.8,1.8-2.7,2.8l13.2,12.6c0.9,0.9,2.4,0.8,3.2-0.1c0.2-0.2,0.3-0.4,0.4-0.6          c0.4-0.9,0.2-1.9-0.5-2.6l-13.1-12.6C1223.6,524.5,1223.5,524.7,1223.3,524.8z"/>
							</g>
							<g>
								<path class="st10" d="M1216,526.5c-0.9,0.9-1.8,1.8-2.6,2.8l13.2,12.5c0.9,0.9,2.4,0.8,3.2-0.1c0.2-0.2,0.3-0.4,0.4-0.6          c0.4-0.9,0.2-1.9-0.5-2.6l-13.2-12.5C1216.3,526.2,1216.1,526.4,1216,526.5z"/>
							</g>
							<g>
								<path class="st10" d="M1225.6,510.4c-0.1,1.7,0,3.4,0.1,5.1l9.2-0.2c1.7,0,3-1.4,2.9-3.1c0-0.3-0.1-0.7-0.2-1          c-0.4-1.2-1.6-2-2.9-1.9l-9.9,0.2C1224.8,509.7,1225.6,510,1225.6,510.4z"/>
							</g>
						</g>
					</g>
					
						<rect x="1205.5" y="509.9" transform="matrix(0.6847 -0.7289 0.7289 0.6847 8.5562 1046.74)" class="st10" width="16.9" height="7.2"/>
				</g>
			</g>
		</g>
	</g>
</g>
</svg>
